# xmcd
#
# Track frame offsets:
#	150
#	20667
#	40562
#	52735
#	67147
#	84790
#	104517
#	125980
#	140350
#	162427
#
# Disc length: 2402 seconds
#
# Revision: 0
# Processed by: cddbd v1.5.2PL0 Copyright (c) Steve Scherf et al.
# Submitted via: EZCDAudioConverter 8.0.2.1
#
DISCID=8409600a
DTITLE=Hoàng Tâm - Sukiyaki
DYEAR=2000
DGENRE=
TTITLE0=Sukiyaki
TTITLE1=Tan như bọt sóng
TTITLE2=Mộng đẹp ngày xưa
TTITLE3=Tan vỡ
TTITLE4=Phù du
TTITLE5=Thu phai
TTITLE6=Cô bé mắt biếc
TTITLE7=Sayonara vĩnh biệt
TTITLE8=Đàn trong đêm vắng
TTITLE9=Người tình ta yêu
EXTD=
EXTT0=
EXTT1=
EXTT2=
EXTT3=
EXTT4=
EXTT5=
EXTT6=
EXTT7=
EXTT8=
EXTT9=
PLAYORDER=
